HIERARCHY
ROOT SpineBase
{
  OFFSET 0.000000 0.000000 0.000000
  CHANNELS 6 Xposition Yposition Zposition Zrotation Xrotation Yrotation
  JOINT SpineMid
  {
    OFFSET 0.000000 32.149835 0.000000
    CHANNELS 3 Zrotation Xrotation Yrotation
    JOINT SpineShoulder
    {
      OFFSET 0.109196 23.994126 -0.541181
      CHANNELS 3 Zrotation Xrotation Yrotation
      JOINT Neck
      {
        OFFSET 0.140282 7.966690 -0.510492
        CHANNELS 3 Zrotation Xrotation Yrotation
        JOINT Head
        {
          OFFSET 4.469378 9.848180 5.278126
          CHANNELS 3 Zrotation Xrotation Yrotation
          End Site
          {
            OFFSET 0 0 0
          }
        }
      }
      JOINT ShoulderLeft
      {
        OFFSET -1.188086 -3.362761 -15.338803
        CHANNELS 3 Zrotation Xrotation Yrotation
        JOINT ElbowLeft
        {
          OFFSET -2.135113 -23.997008 -7.394331
          CHANNELS 3 Zrotation Xrotation Yrotation
          JOINT WristLeft
          {
            OFFSET 4.654335 -26.946728 -0.768744
            CHANNELS 3 Zrotation Xrotation Yrotation
            JOINT HandLeft
            {
              OFFSET 0.265615 -5.975355 0.807205
              CHANNELS 3 Zrotation Xrotation Yrotation
              JOINT HandTipLeft
              {
                OFFSET -0.178347 -4.045223 2.119668
                CHANNELS 3 Zrotation Xrotation Yrotation
                End Site
                {
                  OFFSET 0 0 0
                }
              }
              JOINT ThumbLeft
              {
                OFFSET -1.662816 0.808389 -2.874967
                CHANNELS 3 Zrotation Xrotation Yrotation
                End Site
                {
                  OFFSET 0 0 0
                }
              }
            }
          }
        }
      }
      JOINT ShoulderRight
      {
        OFFSET 1.491292 -6.298444 18.646416
        CHANNELS 3 Zrotation Xrotation Yrotation
        JOINT ElbowRight
        {
          OFFSET 1.093400 -27.570390 -2.292686
          CHANNELS 3 Zrotation Xrotation Yrotation
          JOINT WristRight
          {
            OFFSET -0.044784 -16.812708 -12.479111
            CHANNELS 3 Zrotation Xrotation Yrotation
            JOINT HandRight
            {
              OFFSET 4.885401 -4.655535 -3.035327
              CHANNELS 3 Zrotation Xrotation Yrotation
              JOINT HandTipRight
              {
                OFFSET -1.011191 -2.926418 -1.597113
                CHANNELS 3 Zrotation Xrotation Yrotation
                End Site
                {
                  OFFSET 0 0 0
                }
              }
              JOINT ThumbRight
              {
                OFFSET 0.792016 -0.043063 -0.697388
                CHANNELS 3 Zrotation Xrotation Yrotation
                End Site
                {
                  OFFSET 0 0 0
                }
              }
            }
          }
        }
      }
    }
  }
  JOINT HipLeft
  {
    OFFSET 0.479024 2.164697 -10.022751
    CHANNELS 3 Zrotation Xrotation Yrotation
    JOINT KneeLeft
    {
      OFFSET -9.642456 -38.470468 -3.673951
      CHANNELS 3 Zrotation Xrotation Yrotation
      JOINT AnkleLeft
      {
        OFFSET -9.552004 -28.208640 -0.362722
        CHANNELS 3 Zrotation Xrotation Yrotation
        JOINT FootLeft
        {
          OFFSET 2.854569 -7.784075 2.607175
          CHANNELS 3 Zrotation Xrotation Yrotation
          End Site
          {
            OFFSET 0 0 0
          }
        }
      }
    }
  }
  JOINT HipRight
  {
    OFFSET 1.817970 -0.087661 3.270314
    CHANNELS 3 Zrotation Xrotation Yrotation
    JOINT KneeRight
    {
      OFFSET -2.783840 -35.051615 1.485533
      CHANNELS 3 Zrotation Xrotation Yrotation
      JOINT AnkleRight
      {
        OFFSET -13.839612 -32.560905 -0.701907
        CHANNELS 3 Zrotation Xrotation Yrotation
        JOINT FootRight
        {
          OFFSET 2.037272 -6.661890 -1.893863
          CHANNELS 3 Zrotation Xrotation Yrotation
          End Site
          {
            OFFSET 0 0 0
          }
        }
      }
    }
  }
}
MOTION
Frames: 14
Frame Time: 0.033333
-116.012170 74.825638 329.512635 0.048302 0.024987 -83.462820 0.019326 -0.050833 83.462818 -0.000000 0.000000 0.000000 -0.109356 0.830369 -0.316084 0.000000 0.000000 0.000000 0.922732 -0.457264 -0.240433 -0.924671 0.453329 0.247773 2.139104 0.091712 0.291157 9.266333 19.460228 3.148970 0.000000 0.000000 0.000000 0.000000 0.000000 0.000000 -0.000000 0.000000 0.000000 -0.000000 0.000000 0.000000 8.654411 19.477893 11.293113 -2.568155 -9.509637 -19.876187 0.000000 0.000000 0.000000 0.000000 0.000000 0.000000 0.019326 -0.050833 83.462818 0.704049 -0.846047 0.283254 0.446292 6.066692 1.975777 0.000000 0.000000 0.000000 0.188810 -0.908085 83.450091 -0.664764 1.459835 -0.437878 2.270543 -0.237814 0.564478 0.000000 0.000000 0.000000
-116.278013 73.865093 329.534523 -0.123920 -0.158382 -83.071442 -0.142276 0.142121 83.071447 0.463514 -1.112259 0.053757 -2.420537 3.792292 -0.125017 0.000000 0.000000 0.000000 0.757525 -0.034764 -0.331634 -1.226718 1.140333 0.287598 0.506124 -1.906405 -0.007938 9.606307 19.739261 2.832684 0.000000 0.000000 0.000000 0.000000 0.000000 0.000000 -0.462558 1.112657 -0.044766 -0.000000 0.000000 0.000000 9.756844 19.580142 10.522899 -3.187675 -6.629652 -20.346402 0.000000 0.000000 0.000000 0.000000 0.000000 0.000000 -0.142276 0.142121 83.071447 0.774275 -0.895886 0.300184 0.238926 7.196340 2.320173 0.000000 0.000000 0.000000 0.546212 -0.705158 83.105075 -0.861294 2.207246 -0.558942 2.017520 -0.294026 0.817009 0.000000 0.000000 0.000000
-116.599751 72.731353 329.517482 -0.311802 -0.285353 -82.399431 0.683361 0.310295 82.400219 0.546598 -0.441418 0.056418 -4.382547 5.862503 0.142505 0.000000 0.000000 0.000000 1.211594 -0.855195 -0.439463 -1.014837 2.335832 0.374165 -2.794723 -4.541871 -0.535169 7.301471 19.069837 1.550085 0.000000 0.000000 0.000000 0.000000 0.000000 0.000000 -0.631457 1.363672 -0.056999 -0.000000 0.000000 0.000000 11.091698 19.891970 9.745251 -5.157559 -6.727410 -19.746601 0.000000 0.000000 0.000000 0.000000 0.000000 0.000000 -1.120050 0.657001 82.160370 0.712503 -1.887453 0.588074 -0.009993 8.763798 2.813174 0.000000 0.000000 0.000000 1.070752 -0.594018 82.483166 -1.183888 2.896591 -0.595905 1.432370 4.185708 2.452421 0.000000 0.000000 0.000000
-116.980385 71.609157 329.583912 -0.580578 -0.498969 -81.136025 0.686396 0.417764 81.129293 0.578885 -0.470749 0.053803 -5.798639 7.959066 0.305712 0.000000 0.000000 0.000000 2.081538 -1.853488 -0.549313 -1.590131 3.256240 0.461381 -4.094748 -6.392170 -0.806435 6.249640 19.734061 0.967485 0.000000 0.000000 0.000000 0.000000 0.000000 0.000000 -0.515485 1.583962 -0.053842 -0.000000 0.000000 0.000000 10.831289 20.155985 10.141871 -5.402153 -8.819826 -19.459563 0.000000 0.000000 0.000000 0.000000 0.000000 0.000000 -2.163945 1.244164 80.676298 0.708794 -2.892986 0.875518 -0.183318 9.541391 3.024446 0.000000 0.000000 0.000000 1.494068 -0.158587 81.264841 -1.553245 3.742437 -0.732527 0.786741 5.919138 3.411598 0.000000 0.000000 0.000000
-117.324200 70.629504 329.790036 -0.809789 -0.881775 -79.556632 0.596499 0.433049 79.540555 0.533279 -0.574696 0.045777 -6.541434 9.958875 0.319465 0.000000 0.000000 0.000000 2.930144 -2.341557 -0.645327 -2.032864 3.833866 0.533272 -5.177269 -7.263930 -0.995243 6.069006 21.942928 0.616130 0.000000 0.000000 0.000000 0.000000 0.000000 0.000000 -0.256147 1.964734 -0.046670 -0.000000 0.000000 0.000000 12.344295 21.075785 9.682700 -8.192637 -12.056282 -18.521034 0.000000 0.000000 0.000000 0.000000 0.000000 0.000000 -3.873436 2.003833 78.770664 0.760021 -4.474330 1.326530 -0.231132 9.638549 2.993781 0.000000 0.000000 0.000000 1.682475 0.413380 79.718874 -1.899575 4.472516 -0.875697 0.332316 6.565708 3.927923 0.000000 0.000000 0.000000
-117.531314 69.971398 329.992687 -0.909607 -1.206931 -78.359877 0.456440 0.298844 78.337406 0.441131 -0.557686 0.030543 -5.975907 10.661787 0.016175 0.000000 0.000000 0.000000 3.653751 -2.615180 -0.707942 -2.307182 4.029210 0.577528 -5.432613 -7.725763 -1.010142 7.560869 21.512454 1.036807 0.000000 0.000000 0.000000 0.000000 0.000000 0.000000 0.084584 2.151336 -0.034096 -0.000000 0.000000 0.000000 10.905846 20.999126 10.719349 -8.175628 -15.457290 -17.863066 0.000000 0.000000 0.000000 0.000000 0.000000 0.000000 -5.165401 2.532989 77.351924 0.882358 -5.667292 1.674368 -0.279850 9.111232 2.728216 0.000000 0.000000 0.000000 1.620446 0.654003 78.533034 -2.106655 4.965084 -1.000655 0.526243 6.318403 4.011247 0.000000 0.000000 0.000000
-117.583041 69.752295 330.166522 -0.890610 -1.470444 -77.809249 0.249999 0.047603 77.784541 0.303440 -0.422108 0.009974 -4.474836 10.172191 -0.459267 0.000000 0.000000 0.000000 4.209703 -2.658282 -0.731933 -2.414033 3.863145 0.595410 -5.483790 -7.760822 -0.980817 8.014489 22.663396 1.066357 0.000000 0.000000 0.000000 0.000000 0.000000 0.000000 0.487995 2.126899 -0.015264 -0.000000 0.000000 0.000000 8.576427 21.880694 13.206741 -8.594378 -21.177444 -18.185827 0.000000 0.000000 0.000000 0.000000 0.000000 0.000000 -5.917164 2.745314 76.695591 1.000068 -6.228801 1.840868 -0.384073 7.557396 2.126630 0.000000 0.000000 0.000000 1.251836 0.607507 77.973908 -2.254157 5.188938 -1.102076 0.847528 3.977017 3.499065 0.000000 0.000000 0.000000
-117.464686 70.057160 330.305731 -0.776201 -1.592789 -77.882957 0.001541 -0.303512 77.859212 0.111514 -0.193611 -0.015537 -1.950735 8.074452 -0.965259 0.000000 0.000000 0.000000 4.582213 -2.433709 -0.713879 -2.352216 3.307040 0.593542 -4.425309 -6.965468 -0.720264 10.348260 21.925237 1.938528 0.000000 0.000000 0.000000 0.000000 0.000000 0.000000 0.960353 1.852140 0.013415 -0.000000 0.000000 0.000000 6.600747 20.619898 13.811101 -5.667117 -16.186944 -19.112157 0.000000 0.000000 0.000000 0.000000 0.000000 0.000000 -6.091245 2.644446 76.758621 0.990394 -6.190107 1.822420 -0.399876 5.105709 1.263840 0.000000 0.000000 0.000000 1.082746 0.613706 78.050944 -2.218713 5.231682 -1.147544 1.224199 2.354156 2.922512 0.000000 0.000000 0.000000
-117.309240 70.605236 330.480189 -0.649003 -1.737484 -78.988778 -0.097905 -0.513386 78.967910 -0.024692 -0.057193 -0.026687 -0.127431 6.522383 -1.281262 0.000000 0.000000 0.000000 4.366493 -1.536562 -0.669475 -1.997862 2.413973 0.531537 -3.385931 -6.368400 -0.521634 10.484099 21.842452 2.177759 0.000000 0.000000 0.000000 0.000000 0.000000 0.000000 1.195207 1.797486 0.026217 -0.000000 0.000000 0.000000 5.711944 20.569117 14.491101 -5.560943 -18.739295 -18.804216 0.000000 0.000000 0.000000 0.000000 0.000000 0.000000 -6.091486 2.322249 77.905883 1.079798 -5.901060 1.738584 -0.596039 4.430713 1.014893 0.000000 0.000000 0.000000 0.658557 0.637709 79.144805 -2.202496 5.302094 -1.277724 1.451767 0.139676 2.413766 0.000000 0.000000 0.000000
-117.205458 70.778293 330.591864 -0.545672 -1.769655 -80.175043 -0.139551 -0.713845 80.156332 -0.019850 0.027606 -0.031042 1.100052 5.011312 -1.323277 0.000000 0.000000 0.000000 3.703864 -0.553162 -0.536478 -1.335802 1.545945 0.400498 -2.344863 -5.717275 -0.346500 11.499066 21.755665 2.685257 0.000000 0.000000 0.000000 0.000000 0.000000 0.000000 1.291462 1.727386 0.032907 -0.000000 0.000000 0.000000 4.108079 20.230937 15.537664 -5.669820 -21.605092 -18.332796 0.000000 0.000000 0.000000 0.000000 0.000000 0.000000 -6.237429 1.895299 79.089040 1.298763 -5.834853 1.704222 -0.721451 3.594320 0.732801 0.000000 0.000000 0.000000 0.732849 0.633898 80.345900 -2.263765 5.866125 -1.467023 2.230849 -6.062149 0.678934 0.000000 0.000000 0.000000
-117.102900 70.847952 330.590991 -0.451530 -1.653661 -81.546309 -0.099934 -0.855454 81.529418 0.029150 0.075607 -0.031546 1.541728 3.761009 -1.083876 0.000000 0.000000 0.000000 3.227014 0.112925 -0.462099 -1.033590 0.925690 0.352043 -1.480712 -5.390266 -0.236245 11.654870 22.516127 2.776391 0.000000 0.000000 0.000000 0.000000 0.000000 0.000000 1.282024 1.606013 0.035942 -0.000000 0.000000 0.000000 5.543950 21.591148 15.439396 -7.767421 -21.839775 -18.970115 0.000000 0.000000 0.000000 0.000000 0.000000 0.000000 -6.040877 1.369224 80.498132 1.553777 -5.615547 1.629041 -0.885586 3.224133 0.584640 0.000000 0.000000 0.000000 1.109950 0.566912 81.743181 -2.297813 6.633834 -1.678304 3.225842 -5.114539 1.108744 0.000000 0.000000 0.000000
-117.000244 70.871553 330.426153 -0.372203 -1.326102 -82.578252 0.035523 -0.943979 82.561858 0.055386 0.151949 -0.032910 1.769072 2.499821 -0.782330 0.000000 0.000000 0.000000 2.983752 0.252010 -0.422621 -0.981863 0.696164 0.358343 -1.353562 -4.668646 -0.236740 12.360156 21.796880 3.129609 0.000000 0.000000 0.000000 0.000000 0.000000 0.000000 1.247178 1.332398 0.041994 -0.059371 0.821761 0.042081 7.469857 21.481005 14.515460 -9.887811 -22.489355 -18.548119 0.000000 0.000000 0.000000 0.000000 0.000000 0.000000 -5.204140 0.864089 81.660157 1.898810 -5.034877 1.466572 -1.251458 3.091500 0.482048 0.000000 0.000000 0.000000 1.867638 0.390117 82.813537 -2.237430 7.378700 -1.816911 -2.778849 -10.842640 0.600858 0.000000 0.000000 0.000000
-116.916430 70.913609 330.229934 -0.321393 -1.015543 -83.029724 0.170862 -0.987929 83.013088 0.034438 0.154309 -0.035345 1.904379 1.789987 -0.612086 0.000000 0.000000 0.000000 2.841694 0.327502 -0.393145 -1.601364 0.813527 0.430974 -0.193011 -3.826990 -0.201806 12.039927 21.451140 3.220233 0.000000 0.000000 0.000000 0.000000 0.000000 0.000000 1.245791 1.151870 0.047064 -0.061868 0.849600 0.043875 8.038512 21.993827 14.477886 -10.722346 -23.620711 -18.635063 0.000000 0.000000 0.000000 0.000000 0.000000 0.000000 -4.427423 0.576863 82.226789 2.054679 -4.561360 1.332068 -1.373192 3.042610 0.436968 0.000000 0.000000 0.000000 2.512538 0.202920 83.295396 -2.189978 7.886629 -1.888657 1.095087 -10.933934 0.067012 0.000000 0.000000 0.000000
-116.846101 70.923079 329.955703 -0.297126 -0.617492 -83.194719 0.352677 -0.977601 83.177206 0.004440 0.122652 -0.037334 1.757425 1.361053 -0.428606 0.000000 0.000000 0.000000 2.798367 0.189931 -0.383350 -1.582745 0.761618 0.429078 0.263414 -2.260760 -0.059561 11.385658 21.163623 3.203711 0.000000 0.000000 0.000000 0.000000 0.000000 0.000000 1.220672 0.962049 0.051069 -0.064250 0.877313 0.045585 8.682642 22.493237 14.366644 -11.394620 -24.830184 -18.706360 0.000000 0.000000 0.000000 0.000000 0.000000 0.000000 -3.456228 0.376961 82.530770 2.159685 -4.019729 1.181136 -1.442003 3.210889 0.471513 0.000000 0.000000 0.000000 3.287226 -0.026385 83.494479 -2.124421 8.370839 -1.931081 7.126616 -9.789779 -0.494616 0.000000 0.000000 0.000000
